<?xml version="1.0" encoding="UTF-8"?>
<svg width="69px" height="37px" viewBox="0 0 69 37" version="1.1" xmlns="http://www.w3.org/2000/svg" xmlns:xlink="http://www.w3.org/1999/xlink">
    <!-- Generator: Sketch 55.2 (78181) - https://sketchapp.com -->
    <title>dataset_logo</title>
    <desc>Created with Sketch.</desc>
    <g id="Open-Desktop" stroke="none" stroke-width="1" fill="none" fill-rule="evenodd">
        <g id="02_About" transform="translate(-150.000000, -40.000000)" fill-rule="nonzero">
            <g id="global_nav" transform="translate(150.000000, 40.000000)">
                <g id="dataset_logo">
                    <polygon id="Rectangle" fill="#0078FF" transform="translate(27.308455, 18.510455) rotate(-60.080000) translate(-27.308455, -18.510455) " points="13.094128 12.4357559 41.5542679 12.3626601 41.5227822 24.5851548 13.0626422 24.6582506"></polygon>
                    <polygon id="Rectangle" fill="#0078FF" transform="translate(55.549627, 18.491317) rotate(-60.080000) translate(-55.549627, -18.491317) " points="41.3352997 12.416618 69.7954397 12.3435221 69.763954 24.5660168 41.303814 24.6391127"></polygon>
                    <path d="M68.7196875,6.15378676 C68.7196875,9.54404355 65.9876451,12.2923897 62.6175,12.2923897 C59.2473549,12.2923897 56.5153125,9.54404355 56.5153125,6.15378676 C56.5153125,2.76352998 59.2473549,0.0151838235 62.6175,0.0151838235 C65.9856754,0.0199627803 68.7149369,2.76551146 68.7196875,6.15378676" id="Path" fill="#00E89D"></path>
                    <path d="M20.2471875,36.9986437 C18.0594827,36.9972307 16.0382032,35.8235131 14.9428125,33.9184926 L0.819375,9.21224265 C-0.859743228,6.27122483 0.14908515,2.51774148 3.07265625,0.828602941 C5.99622735,-0.860535601 9.72744427,0.154313067 11.4065625,3.09533088 L25.53,27.7798897 C27.2081855,30.7218111 26.205562,34.4749919 23.2875,36.174375 C22.3646201,36.7154039 21.3153427,36.9998755 20.2471875,36.9986437 Z" id="Path" fill="#00E89D"></path>
                    <path d="M48.4940625,36.9986829 C46.3063577,36.9972307 44.2850782,35.8235131 43.1896875,33.9184926 L29.06625,9.21224265 C27.4502861,6.27801942 28.4710024,2.58233149 31.3600187,0.907238463 C34.249035,-0.767854559 37.9395675,0.196183838 39.6534375,3.07363971 L53.776875,27.7798897 C55.4550605,30.7218111 54.452437,34.4749919 51.534375,36.174375 C50.6125942,36.7180475 49.562588,37.0027166 48.4940625,36.9986829 L48.4940625,36.9986829 Z" id="Path" fill="#00E89D"></path>
                </g>
            </g>
        </g>
    </g>
</svg>