<svg xmlns="http://www.w3.org/2000/svg" viewBox="0 0 319.4 271.87"><defs><style>.cls-1{fill:#80f4ce;}.cls-2{fill:#fff;}</style></defs><title>Asset 4</title><g id="Layer_2" data-name="Layer 2"><g id="Layer_1-2" data-name="Layer 1"><rect class="cls-1" x="60.95" y="57.04" width="131.4" height="56.6" transform="translate(-10.49 152.54) rotate(-60.08)"/><rect class="cls-1" x="191.93" y="56.95" width="131.4" height="56.6" transform="translate(55.23 266.02) rotate(-60.08)"/><path class="cls-2" d="M318.7,28.37A28.3,28.3,0,1,1,290.4.07a28.34,28.34,0,0,1,28.3,28.3"/><path class="cls-2" d="M93.9,170.57a28.44,28.44,0,0,1-24.6-14.2L3.8,42.47a28.31,28.31,0,0,1,49.1-28.2l65.5,113.8a28.39,28.39,0,0,1-10.4,38.7A27.94,27.94,0,0,1,93.9,170.57Z"/><path class="cls-2" d="M224.9,170.57a28.44,28.44,0,0,1-24.6-14.2L134.8,42.47a28.34,28.34,0,0,1,49.1-28.3l65.5,113.9a28.39,28.39,0,0,1-10.4,38.7A27.67,27.67,0,0,1,224.9,170.57Z"/><polygon class="cls-2" points="53.9 227.17 45.1 255.77 36.2 227.17 28.4 227.17 19.6 255.77 10.7 227.17 0 227.17 15.4 270.77 23.7 270.77 32.3 243.37 41 270.77 49.2 270.77 64.6 227.17 53.9 227.17"/><path class="cls-2" d="M111.2,270.77l-1.7-5.3H94l-1.7,5.3H81.6l15.6-43.6h9.3l15.8,43.6Zm-9.4-31.1-5.4,17.9H107Z"/><polygon class="cls-2" points="180.4 227.17 168.7 227.17 159.4 244.37 159.4 244.37 159.4 244.37 150.1 227.17 138.3 227.17 154.3 255.27 154.3 270.77 164.5 270.77 164.5 255.27 180.4 227.17"/><polygon class="cls-2" points="249 270.77 239.2 270.77 239.2 243.77 229.8 270.77 222.3 270.77 212.6 243.77 212.6 270.77 202.8 270.77 202.8 227.17 214.4 227.17 226.1 257.57 237.6 227.17 249 227.17 249 270.77"/><path class="cls-2" d="M273.3,249c0-12,8.6-22.9,23.1-22.9s23,11,23,22.9-8.6,22.9-23,22.9S273.3,261,273.3,249m35.9,0c0-7.2-4.9-13.8-12.8-13.8s-12.8,6.7-12.8,13.8,4.8,13.8,12.8,13.8,12.8-6.6,12.8-13.8"/></g></g></svg>