<?xml version="1.0" encoding="UTF-8"?>
<svg width="24px" height="24px" viewBox="0 0 24 24" version="1.1" xmlns="http://www.w3.org/2000/svg" xmlns:xlink="http://www.w3.org/1999/xlink">
    <!-- Generator: Sketch 58 (84663) - https://sketch.com -->
    <title>mobile_footer_linkedin</title>
    <desc>Created with Sketch.</desc>
    <g id="Press" stroke="none" stroke-width="1" fill="none" fill-rule="evenodd">
        <g id="press_mobile" transform="translate(-321.000000, -623.000000)" fill="#272744">
            <g id="intro-paragraph" transform="translate(30.000000, 169.000000)">
                <g id="social-icons" transform="translate(0.000000, 454.000000)">
                    <g id="footer_linkedin" transform="translate(291.000000, 0.000000)">
                        <path d="M3.53142857,19.5554286 L7.03657143,19.5554286 L7.03657143,9.00685714 L3.53142857,9.00685714 L3.53142857,19.5554286 Z M15.648,8.76 C17.9554286,8.76 19.6811429,10.2662857 19.6811429,13.5074286 L19.6811429,19.5565714 L16.1748571,19.5565714 L16.1748571,13.9108571 C16.1748571,12.4925714 15.6685714,11.5245714 14.3988571,11.5245714 C13.4308571,11.5245714 12.8514286,12.1817143 12.5977143,12.8114286 C12.5051429,13.0377143 12.488,13.3485714 12.488,13.664 L12.488,19.5565714 L8.97485714,19.5565714 C8.97485714,19.5565714 9.02171429,9.99771429 8.97485714,9.00685714 L12.488,9.00685714 L12.488,10.4971429 C12.9531429,9.77714286 13.7885714,8.76 15.648,8.76 L15.648,8.76 Z M5.30742857,3.92114286 C6.50742857,3.92114286 7.24228571,4.70742857 7.26514286,5.74171429 C7.26514286,6.75428571 6.504,7.56342857 5.28114286,7.56342857 L5.26171429,7.56342857 C4.08457143,7.56342857 3.32342857,6.75428571 3.32342857,5.74171429 C3.32342857,4.70742857 4.10742857,3.92114286 5.30742857,3.92114286 L5.30742857,3.92114286 Z M1.71657143,3.57047725e-13 C0.769142857,3.57047725e-13 -9.76996262e-14,0.746285714 -9.76996262e-14,1.67085714 L-9.76996262e-14,21.6902857 C-9.76996262e-14,22.6137143 0.769142857,23.3611429 1.71657143,23.3611429 L21.5017143,23.3611429 C22.4491429,23.3611429 23.2182857,22.6137143 23.2182857,21.6902857 L23.2182857,1.67085714 C23.2182857,0.746285714 22.4491429,3.57047725e-13 21.5017143,3.57047725e-13 L1.71657143,3.57047725e-13 Z"></path>
                    </g>
                </g>
            </g>
        </g>
    </g>
</svg>