<?xml version="1.0" encoding="UTF-8"?>
<svg width="24px" height="20px" viewBox="0 0 24 20" version="1.1" xmlns="http://www.w3.org/2000/svg" xmlns:xlink="http://www.w3.org/1999/xlink">
    <!-- Generator: Sketch 58 (84663) - https://sketch.com -->
    <title>mobile_footer_twitter</title>
    <desc>Created with Sketch.</desc>
    <g id="Press" stroke="none" stroke-width="1" fill="none" fill-rule="evenodd">
        <g id="press_mobile" transform="translate(-146.000000, -625.000000)" fill="#272744">
            <g id="intro-paragraph" transform="translate(30.000000, 169.000000)">
                <g id="social-icons" transform="translate(0.000000, 454.000000)">
                    <g id="footer_twitter" transform="translate(116.000000, 2.000000)">
                        <path d="M23.2182857,2.29882353 C22.3645714,2.68941176 21.4468571,2.95294118 20.4822857,3.07176471 C21.4662857,2.46470588 22.2205714,1.50352941 22.5771429,0.358823529 C21.656,0.921176471 20.6377143,1.32823529 19.552,1.54823529 C18.6834286,0.595294118 17.4457143,1.08357767e-13 16.0754286,1.08357767e-13 C13.4445714,1.08357767e-13 11.312,2.19529412 11.312,4.90352941 C11.312,5.28823529 11.3542857,5.66235294 11.4354286,6.02117647 C7.47657143,5.81647059 3.96685714,3.86352941 1.61714286,0.897647059 C1.20685714,1.62117647 0.972571429,2.46352941 0.972571429,3.36235294 C0.972571429,5.06352941 1.81371429,6.56352941 3.09142857,7.44470588 C2.31085714,7.41882353 1.576,7.19882353 0.933714286,6.83058824 C0.932571429,6.85176471 0.932571429,6.87176471 0.932571429,6.89176471 C0.932571429,9.26823529 2.57485714,11.2494118 4.75428571,11.7 C4.35428571,11.8129412 3.93371429,11.8717647 3.49942857,11.8717647 C3.192,11.8717647 2.89371429,11.8423529 2.60228571,11.7847059 C3.20914286,13.7329412 4.968,15.1505882 7.05257143,15.1905882 C5.42171429,16.5058824 3.368,17.2894118 1.136,17.2894118 C0.752,17.2894118 0.372571429,17.2658824 -9.76996262e-14,17.2211765 C2.10857143,18.6117647 4.61142857,19.4235294 7.30171429,19.4235294 C16.064,19.4235294 20.8537143,11.9517647 20.8537143,5.47176471 C20.8537143,5.25882353 20.8491429,5.04823529 20.84,4.83764706 C21.7702857,4.14588235 22.5782857,3.28235294 23.2171429,2.29882353"></path>
                    </g>
                </g>
            </g>
        </g>
    </g>
</svg>