<?xml version="1.0" encoding="UTF-8"?>
<svg width="24px" height="24px" viewBox="0 0 24 24" version="1.1" xmlns="http://www.w3.org/2000/svg" xmlns:xlink="http://www.w3.org/1999/xlink">
    <!-- Generator: Sketch 58 (84663) - https://sketch.com -->
    <title>mobile_footer_instagram</title>
    <desc>Created with Sketch.</desc>
    <g id="Press" stroke="none" stroke-width="1" fill="none" fill-rule="evenodd">
        <g id="press_mobile" transform="translate(-88.000000, -623.000000)" fill="#272744">
            <g id="intro-paragraph" transform="translate(30.000000, 169.000000)">
                <g id="social-icons" transform="translate(0.000000, 454.000000)">
                    <g id="footer_instagram" transform="translate(58.000000, 0.000000)">
                        <path d="M11.8137143,7.74285714 C14.0582857,7.74285714 15.8582857,9.54057143 15.8582857,11.7851429 C15.8582857,14.0297143 14.0582857,15.8274286 11.8137143,15.8274286 C9.56914286,15.8274286 7.77142857,14.0297143 7.77142857,11.7851429 C7.77142857,9.54057143 9.56914286,7.74285714 11.8137143,7.74285714 L11.8137143,7.74285714 Z M11.8137143,5.71657143 C8.47428571,5.71657143 5.74514286,8.44571429 5.74514286,11.7851429 C5.74514286,15.1245714 8.47428571,17.8537143 11.8137143,17.8537143 C15.1531429,17.8537143 17.8845714,15.1245714 17.8845714,11.7851429 C17.8845714,8.44571429 15.1531429,5.71657143 11.8137143,5.71657143 L11.8137143,5.71657143 Z M18.1554286,4.05257143 C17.3725714,4.05257143 16.7382857,4.68685714 16.7382857,5.46971429 C16.7382857,6.25142857 17.3725714,6.88571429 18.1554286,6.88571429 C18.9371429,6.88571429 19.5725714,6.25142857 19.5725714,5.46971429 C19.5725714,4.68685714 18.9371429,4.05257143 18.1554286,4.05257143 L18.1554286,4.05257143 Z M6.83771429,2.02628571 L16.7897143,2.02628571 C19.4731429,2.02628571 21.6034286,4.15657143 21.6034286,6.84 L21.6034286,16.7314286 C21.6034286,19.416 19.4731429,21.544 16.7897143,21.544 L6.83771429,21.544 C4.15428571,21.544 2.02628571,19.416 2.02628571,16.7314286 L2.02628571,6.84 C2.02628571,4.15657143 4.15428571,2.02628571 6.83771429,2.02628571 L6.83771429,2.02628571 Z M6.83771429,0 C3.06628571,0 -1.0658141e-14,3.06857143 -1.0658141e-14,6.84 L-1.0658141e-14,16.7314286 C-1.0658141e-14,20.504 3.06628571,23.5714286 6.83771429,23.5714286 L16.7897143,23.5714286 C20.5611429,23.5714286 23.6274286,20.504 23.6274286,16.7314286 L23.6274286,6.84 C23.6274286,3.06857143 20.5611429,0 16.7897143,0 L6.83771429,0 Z"></path>
                    </g>
                </g>
            </g>
        </g>
    </g>
</svg>