<?xml version="1.0" encoding="UTF-8"?>
<svg width="24px" height="24px" viewBox="0 0 24 24" version="1.1" xmlns="http://www.w3.org/2000/svg" xmlns:xlink="http://www.w3.org/1999/xlink">
    <!-- Generator: Sketch 58 (84663) - https://sketch.com -->
    <title>mobile_footer_facebook</title>
    <desc>Created with Sketch.</desc>
    <g id="Press" stroke="none" stroke-width="1" fill="none" fill-rule="evenodd">
        <g id="press_mobile" transform="translate(-204.000000, -623.000000)" fill="#272744">
            <g id="intro-paragraph" transform="translate(30.000000, 169.000000)">
                <g id="social-icons" transform="translate(0.000000, 454.000000)">
                    <g id="footer_facebook" transform="translate(174.000000, 0.000000)">
                        <path d="M1.28114286,3.57047725e-13 C0.572571429,3.57047725e-13 -9.76996262e-14,0.572571429 -9.76996262e-14,1.28114286 L-9.76996262e-14,21.9382857 C-9.76996262e-14,22.6457143 0.572571429,23.2182857 1.28114286,23.2182857 L12.4022857,23.2182857 L12.4022857,14.2297143 L9.376,14.2297143 L9.376,10.7245714 L12.4022857,10.7245714 L12.4022857,8.13942857 C12.4022857,5.14057143 14.2342857,3.50857143 16.9097143,3.50857143 C18.1908571,3.50857143 19.2914286,3.60342857 19.6125714,3.64571429 L19.6125714,6.77942857 L17.7577143,6.77942857 C16.3017143,6.77942857 16.0194286,7.472 16.0194286,8.48571429 L16.0194286,10.7245714 L19.4914286,10.7245714 L19.0377143,14.2297143 L16.0194286,14.2297143 L16.0194286,23.2182857 L21.9382857,23.2182857 C22.6457143,23.2182857 23.2182857,22.6457143 23.2182857,21.9382857 L23.2182857,1.28114286 C23.2182857,0.573714286 22.6457143,3.57047725e-13 21.9382857,3.57047725e-13 L1.28114286,3.57047725e-13 Z"></path>
                    </g>
                </g>
            </g>
        </g>
    </g>
</svg>